# xmcd
#
# Track frame offsets:
#	150
#	9975
#	25425
#	37012
#	54037
#	68137
#	81787
#	95475
#	108187
#	121987
#	135750
#	150450
#
# Disc length: 2181 seconds
#
# Revision: 2
# Processed by: cddbd v1.4PL0 Copyright (c) Steve Scherf et al.
# Submitted via: Gronk 1.4
#
DISCID=8508830c
DTITLE=Claire Lynch - Love Light
DYEAR=1900
DGENRE=country
TTITLE0=I'm Movin'
TTITLE1=I Don't Have to Dream
TTITLE2=Love Light
TTITLE3=Jealousy
TTITLE4=Missionary Ridge
TTITLE5=Blue Water Holler
TTITLE6=Stranger Things Have Happened
TTITLE7=Savannah
TTITLE8=He Don't Like to Talk About It
TTITLE9=Sweethearts Again
TTITLE10=These Flowers
TTITLE11=Keep My Love There (While I'm Gone)
EXTD=2000 Rounder 11661-0464-2
EXTT0=
EXTT1=
EXTT2=
EXTT3=
EXTT4=
EXTT5=
EXTT6=
EXTT7=
EXTT8=
EXTT9=
EXTT10=
EXTT11=
PLAYORDER=
